<?xml version="1.0" standalone="no"?>
<!DOCTYPE svg PUBLIC "-//W3C//DTD SVG 20010904//EN"
 "http://www.w3.org/TR/2001/REC-SVG-20010904/DTD/svg10.dtd">
<svg version="1.0" xmlns="http://www.w3.org/2000/svg"
 width="192.000000pt" height="192.000000pt" viewBox="0 0 192.000000 192.000000"
 preserveAspectRatio="xMidYMid meet">
<metadata>
Created by potrace 1.14, written by Peter Selinger 2001-2017
</metadata>
<g transform="translate(0.000000,192.000000) scale(0.100000,-0.100000)"
fill="#000000" stroke="none">
<path d="M810 1914 c-69 -13 -212 -60 -265 -87 -434 -217 -642 -703 -498
-1162 95 -303 321 -524 643 -631 80 -27 95 -28 265 -29 161 0 188 2 255 23
180 57 317 137 432 255 278 284 353 696 195 1064 -36 85 -65 122 -78 102 -4
-8 5 -37 23 -73 76 -150 104 -293 95 -475 -12 -239 -113 -451 -295 -622 -120
-112 -270 -192 -424 -226 -97 -21 -299 -21 -396 0 -154 34 -304 114 -424 226
-128 120 -209 250 -263 421 -49 157 -45 388 9 547 96 283 304 492 588 592
l103 36 180 0 c161 0 188 -2 255 -24 103 -32 182 -70 264 -125 46 -30 73 -43
79 -37 31 31 -153 141 -323 194 -84 26 -112 30 -245 32 -82 2 -161 1 -175 -1z"/>
<path d="M1590 1651 c0 -16 132 -161 141 -155 19 11 7 34 -52 98 -55 60 -89
82 -89 57z"/>
<path d="M723 1620 c-38 -23 -63 -67 -63 -112 l0 -33 -59 0 c-45 0 -67 -5 -87
-21 -41 -30 -66 -68 -73 -110 -6 -34 -9 -38 -54 -49 -63 -16 -96 -41 -125 -96
-32 -60 -28 -149 9 -205 l26 -39 -25 -38 c-37 -56 -42 -140 -12 -202 26 -54
81 -94 139 -102 38 -5 41 -8 41 -38 0 -37 32 -88 73 -119 22 -16 43 -21 88
-21 l59 1 0 -34 c0 -69 66 -132 137 -132 42 0 94 32 115 71 17 31 18 71 18
612 0 511 -2 583 -16 613 -33 68 -125 95 -191 54z m117 -25 c55 -28 60 -53 60
-285 l0 -210 -54 0 c-30 0 -58 5 -61 10 -11 17 -54 11 -65 -9 -20 -39 19 -73
59 -52 11 6 42 11 70 11 l51 0 0 -90 0 -90 -82 0 c-110 0 -118 -8 -118 -110 0
-84 -11 -101 -47 -75 -26 20 -51 18 -63 -5 -8 -14 -8 -26 0 -40 11 -21 44 -27
55 -10 3 6 16 10 28 10 44 0 52 15 57 107 l5 88 83 3 82 3 0 -233 c0 -210 -2
-236 -19 -264 -22 -36 -70 -59 -105 -50 -14 3 -38 17 -53 30 -26 23 -28 29
-28 108 l0 83 33 3 c22 2 32 -1 32 -11 0 -10 13 -14 45 -14 43 0 61 16 35 32
-6 4 -5 13 2 25 16 25 3 38 -22 22 -12 -7 -21 -8 -25 -2 -10 15 -35 12 -35 -5
0 -10 -10 -15 -32 -15 -44 0 -59 -11 -67 -51 -9 -47 -51 -59 -113 -31 -50 22
-78 67 -78 126 0 35 -1 36 -36 36 -76 0 -149 61 -161 134 -9 55 4 99 42 143
l34 40 -20 19 c-39 36 -62 93 -56 147 7 82 63 137 146 145 l51 5 0 36 c0 84
76 153 149 135 l36 -9 3 -62 c2 -44 -2 -69 -13 -86 -18 -28 -11 -54 16 -62 38
-12 67 43 38 72 -7 7 -10 53 -7 131 3 103 6 123 23 142 37 41 78 49 125 25z"/>
<path d="M767 1443 c-4 -7 -2 -81 2 -92 0 -2 7 2 15 8 11 9 20 10 36 1 16 -9
21 -8 26 5 4 9 2 21 -4 27 -8 8 -8 15 -1 24 15 19 2 36 -19 25 -10 -6 -23 -6
-34 0 -9 5 -19 6 -21 2z"/>
<path d="M436 1103 c-3 -4 -1 -12 5 -19 7 -9 7 -19 -1 -34 -9 -16 -8 -21 5
-26 8 -4 21 -1 28 5 10 7 17 7 24 0 17 -17 35 -1 24 19 -6 10 -6 23 0 34 5 10
8 19 7 19 -11 5 -88 6 -92 2z"/>
<path d="M584 976 c-12 -31 0 -51 30 -51 36 0 56 26 37 49 -17 20 -60 21 -67
2z"/>
<path d="M350 781 c-13 -25 -4 -48 21 -56 38 -12 65 35 37 63 -18 18 -46 14
-58 -7z"/>
<path d="M1143 1510 c-12 -5 -29 -20 -38 -34 -21 -31 -14 -71 26 -145 20 -38
26 -57 18 -62 -15 -9 -2 -29 19 -29 10 0 48 -34 85 -75 37 -41 73 -72 80 -69
6 3 41 38 77 79 51 59 71 75 93 75 29 0 36 14 12 27 -12 7 -9 18 15 67 36 70
38 106 7 141 -43 50 -123 43 -185 -15 -23 -22 -23 -22 -45 -2 -51 46 -113 62
-164 42z"/>
<path d="M1308 880 c-3 -106 -5 -122 -24 -141 l-21 -21 -7 48 c-8 59 -20 74
-61 74 -43 0 -124 -72 -154 -135 -25 -52 -29 -151 -7 -180 19 -26 121 -33 164
-11 40 21 52 44 52 99 0 37 6 50 38 83 l37 39 38 -37 c30 -30 37 -44 37 -77 0
-83 38 -121 124 -121 69 0 93 13 105 57 13 48 -7 140 -41 188 -38 54 -96 95
-134 95 -38 0 -44 -7 -59 -75 l-11 -50 -20 30 c-15 23 -20 51 -22 142 -3 86
-7 113 -17 113 -10 0 -14 -28 -17 -120z"/>
</g>
</svg>
